<?xml version="1.0" encoding="UTF-8" standalone="no"?>
<svg
   xmlns:dc="http://purl.org/dc/elements/1.1/"
   xmlns:cc="http://creativecommons.org/ns#"
   xmlns:rdf="http://www.w3.org/1999/02/22-rdf-syntax-ns#"
   xmlns:svg="http://www.w3.org/2000/svg"
   xmlns="http://www.w3.org/2000/svg"
   xmlns:sodipodi="http://sodipodi.sourceforge.net/DTD/sodipodi-0.dtd"
   xmlns:inkscape="http://www.inkscape.org/namespaces/inkscape"
   viewBox="0 0 958 300.00001"
   version="1.1"
   id="svg20"
   sodipodi:docname="logo-aulas-txt-furado.svg"
   inkscape:version="0.92.4 (5da689c313, 2019-01-14)"
   width="958"
   height="300">
  <metadata
     id="metadata26">
    <rdf:RDF>
      <cc:Work
         rdf:about="">
        <dc:format>image/svg+xml</dc:format>
        <dc:type
           rdf:resource="http://purl.org/dc/dcmitype/StillImage" />
        <dc:title>Moodle-Logo-RGB</dc:title>
      </cc:Work>
    </rdf:RDF>
  </metadata>
  <defs
     id="defs24">
    <inkscape:path-effect
       tgtlength_rdm="0.3;1"
       tgtlength="15"
       tgtscale="10"
       tgt_places_rdmness="1;1"
       nbtangents="5"
       tremble_frequency="1"
       tremble_size="5;1"
       parallel_offset="5;1"
       ends_tolerance="0.1;1"
       strokeoverlap_rdm="0.3;1"
       strokeoverlap="0.3"
       strokelength_rdm="0.3;1"
       strokelength="100"
       nbiter_approxstrokes="3"
       is_visible="true"
       id="path-effect1767"
       effect="sketch" />
    <inkscape:path-effect
       effect="sketch"
       id="path-effect1650"
       is_visible="true"
       nbiter_approxstrokes="3"
       strokelength="100"
       strokelength_rdm="0.3;1"
       strokeoverlap="0.3"
       strokeoverlap_rdm="0.3;1"
       ends_tolerance="0.1;1"
       parallel_offset="5;1"
       tremble_size="5;1"
       tremble_frequency="1"
       nbtangents="5"
       tgt_places_rdmness="1;1"
       tgtscale="10"
       tgtlength="15"
       tgtlength_rdm="0.3;1" />
    <inkscape:path-effect
       effect="sketch"
       id="path-effect1526"
       is_visible="true"
       nbiter_approxstrokes="3"
       strokelength="20"
       strokelength_rdm="0.3;1"
       strokeoverlap="0.3"
       strokeoverlap_rdm="0.3;1"
       ends_tolerance="0.1;1"
       parallel_offset="2;1"
       tremble_size="1;1"
       tremble_frequency="1"
       nbtangents="3"
       tgt_places_rdmness="1;1"
       tgtscale="10"
       tgtlength="10"
       tgtlength_rdm="0.3;1" />
    <inkscape:path-effect
       effect="sketch"
       id="path-effect1514"
       is_visible="true"
       nbiter_approxstrokes="3"
       strokelength="20"
       strokelength_rdm="0.3;1"
       strokeoverlap="0.3"
       strokeoverlap_rdm="0.3;1"
       ends_tolerance="0.1;1"
       parallel_offset="2;1"
       tremble_size="1;1"
       tremble_frequency="1"
       nbtangents="3"
       tgt_places_rdmness="1;1"
       tgtscale="10"
       tgtlength="10"
       tgtlength_rdm="0.3;1" />
    <inkscape:path-effect
       effect="sketch"
       id="path-effect1490"
       is_visible="true"
       nbiter_approxstrokes="3"
       strokelength="25"
       strokelength_rdm="1;1"
       strokeoverlap="0.3"
       strokeoverlap_rdm="0.3;1"
       ends_tolerance="0.1;1"
       parallel_offset="1.5;1"
       tremble_size="1;1"
       tremble_frequency="0.25"
       nbtangents="3"
       tgt_places_rdmness="1;1"
       tgtscale="3"
       tgtlength="15"
       tgtlength_rdm="0.3;1" />
    <inkscape:path-effect
       effect="sketch"
       id="path-effect1476"
       is_visible="true"
       nbiter_approxstrokes="3"
       strokelength="15"
       strokelength_rdm="1;1"
       strokeoverlap="0.3"
       strokeoverlap_rdm="0.3;623035235"
       ends_tolerance="0.1;1"
       parallel_offset="1.5;1"
       tremble_size="1;1"
       tremble_frequency="0.25"
       nbtangents="3"
       tgt_places_rdmness="1;1"
       tgtscale="3"
       tgtlength="15"
       tgtlength_rdm="0.3;1" />
  </defs>
  <sodipodi:namedview
     pagecolor="#ffffff"
     bordercolor="#666666"
     borderopacity="1"
     objecttolerance="10"
     gridtolerance="10"
     guidetolerance="10"
     inkscape:pageopacity="0"
     inkscape:pageshadow="2"
     inkscape:window-width="1024"
     inkscape:window-height="739"
     id="namedview22"
     showgrid="false"
     inkscape:zoom="0.19417161"
     inkscape:cx="-517.59474"
     inkscape:cy="-377.44218"
     inkscape:window-x="0"
     inkscape:window-y="0"
     inkscape:window-maximized="1"
     inkscape:current-layer="svg20"
     showguides="false" />
  <title
     id="title2">Moodle-Logo-RGB</title>
  <path
     style="fill:#3a556a;stroke:none;stroke-width:26.59132004;stroke-miterlimit:4;stroke-dasharray:none;stroke-opacity:1"
     d="M 0 0 L 0 300 L 957.5293 300 L 957.5293 0 L 0 0 z M 305.49023 81.021484 L 335.85938 81.021484 L 335.85938 207.61719 L 305.49023 207.61719 L 305.49023 81.021484 z M 612.75391 94.158203 L 642.95312 94.158203 L 642.95312 119.75 L 666.83984 119.75 L 666.83984 139.88281 L 642.95312 139.88281 L 642.95312 174.68945 C 642.95312 181.17276 645.62484 184.41406 650.9707 184.41406 C 654.26932 184.41406 658.19436 183.38904 662.74414 181.3418 L 668.54492 202.83984 C 665.13258 204.77356 661.2093 206.30982 656.77344 207.44727 C 652.33738 208.47099 647.84471 208.98242 643.29492 208.98242 C 634.19555 208.98242 626.80051 206.3669 621.11328 201.13477 C 615.53997 195.90244 612.75391 188.67989 612.75391 179.4668 L 612.75391 139.88281 L 599.95898 139.88281 L 599.95898 119.75 L 612.75391 119.75 L 612.75391 94.158203 z M 791.69922 94.158203 L 821.89844 94.158203 L 821.89844 119.75 L 845.78516 119.75 L 845.78516 139.88281 L 821.89844 139.88281 L 821.89844 174.68945 C 821.89844 181.17276 824.57211 184.41406 829.91797 184.41406 C 833.21658 184.41406 837.13967 183.38904 841.68945 181.3418 L 847.49023 202.83984 C 844.0779 204.77356 840.15461 206.30982 835.71875 207.44727 C 831.28269 208.47099 826.79002 208.98242 822.24023 208.98242 C 813.14086 208.98242 805.74778 206.3669 800.06055 201.13477 C 794.48724 195.90244 791.69922 188.67989 791.69922 179.4668 L 791.69922 139.88281 L 778.9043 139.88281 L 778.9043 119.75 L 791.69922 119.75 L 791.69922 94.158203 z M 496.0293 113.94922 C 502.74005 113.94922 509.33876 114.85989 515.82227 116.67969 C 522.4193 118.49968 528.61701 121.17316 534.41797 124.69922 L 524.18164 144.49023 C 512.23856 138.23438 502.45669 135.10547 494.83594 135.10547 C 492.21987 135.10547 490.11578 135.6171 488.52344 136.64062 C 486.9309 137.55062 486.13477 138.97253 486.13477 140.90625 C 486.13477 142.9535 487.38633 144.6043 489.88867 145.85547 C 492.39101 147.10664 496.37225 148.4704 501.83203 149.94922 C 508.42906 151.88274 513.8886 153.81628 518.21094 155.75 C 522.647 157.5698 526.45593 160.41401 529.64062 164.28125 C 532.82551 168.03476 534.41797 172.98267 534.41797 179.125 C 534.41797 188.45182 530.77958 195.78871 523.5 201.13477 C 516.33415 206.3669 506.94957 208.98242 495.34766 208.98242 C 487.49946 208.98242 479.99202 207.9014 472.82617 205.74023 C 465.66032 203.46534 459.29011 200.16784 453.7168 195.8457 L 463.27148 176.22461 C 468.50362 179.8644 473.96316 182.70842 479.65039 184.75586 C 485.45135 186.68938 490.91089 187.65625 496.0293 187.65625 C 498.98654 187.65625 501.31912 187.20101 503.02539 186.29102 C 504.84519 185.26749 505.75586 183.84538 505.75586 182.02539 C 505.75586 179.7505 504.4481 177.9875 501.83203 176.73633 C 499.32969 175.48516 495.34845 174.11925 489.88867 172.64062 C 483.40537 170.70691 478.05802 168.83151 473.84961 167.01172 C 469.641 165.078 465.94446 162.23398 462.75977 158.48047 C 459.6886 154.72696 458.1543 149.83505 458.1543 143.80664 C 458.1543 134.47982 461.6803 127.20108 468.73242 121.96875 C 475.78455 116.62289 484.88248 113.94922 496.0293 113.94922 z M 130.33398 114.12109 C 143.07334 114.12109 152.9676 117.07751 160.01953 122.99219 C 167.07166 128.79314 170.65581 136.98255 170.76953 147.56055 L 170.76953 207.61719 L 140.91211 207.61719 L 140.91211 197.20898 C 134.76998 205.05738 125.49955 208.98242 113.10156 208.98242 C 103.31964 208.98242 95.585668 206.3669 89.898438 201.13477 C 84.325129 195.78871 81.537109 188.79291 81.537109 180.14844 C 81.537109 171.39024 84.551673 164.56479 90.580078 159.67383 C 96.722208 154.78287 105.4812 152.28169 116.85547 152.16797 L 140.91211 152.16797 L 140.91211 151.14453 C 140.91211 146.70867 139.37585 143.29487 136.30469 140.90625 C 133.34745 138.51763 129.02512 137.32422 123.33789 137.32422 C 119.47065 137.32422 115.09213 137.95 110.20117 139.20117 C 105.42394 140.45234 100.59018 142.27154 95.699219 144.66016 L 87.337891 124.1875 C 94.844917 120.77516 102.01126 118.27223 108.83594 116.67969 C 115.77414 114.97362 122.94068 114.12109 130.33398 114.12109 z M 401.58398 114.12109 C 414.32314 114.12109 424.21936 117.07751 431.27148 122.99219 C 438.32361 128.79314 441.90581 136.98255 442.01953 147.56055 L 442.01953 207.61719 L 412.16211 207.61719 L 412.16211 197.20898 C 406.01998 205.05738 396.74955 208.98242 384.35156 208.98242 C 374.56964 208.98242 366.83547 206.3669 361.14844 201.13477 C 355.57493 195.78871 352.78906 188.79291 352.78906 180.14844 C 352.78906 171.39024 355.80167 164.56479 361.83008 159.67383 C 367.97221 154.78287 376.7312 152.28169 388.10547 152.16797 L 412.16211 152.16797 L 412.16211 151.14453 C 412.16211 146.70867 410.62761 143.29487 407.55664 140.90625 C 404.5992 138.51763 400.27688 137.32422 394.58984 137.32422 C 390.72261 137.32422 386.34213 137.95 381.45117 139.20117 C 376.67394 140.45234 371.84018 142.27154 366.94922 144.66016 L 358.58984 124.1875 C 366.09687 120.77516 373.26126 118.27223 380.08594 116.67969 C 387.02434 114.97362 394.19068 114.12109 401.58398 114.12109 z M 188.60938 115.31445 L 218.97852 115.31445 L 218.97852 164.96289 C 218.97852 170.19502 220.28628 174.29081 222.90234 177.24805 C 225.63233 180.20549 229.27268 181.68359 233.82227 181.68359 C 239.16832 181.56967 243.3763 179.63613 246.44727 175.88281 C 249.51843 172.01557 251.05469 167.01127 251.05469 160.86914 L 251.05469 115.31445 L 281.42383 115.31445 L 281.42383 207.61719 L 251.05469 207.61719 L 251.05469 192.60352 C 244.79883 203.29543 234.95882 208.75497 221.53711 208.98242 C 211.52755 208.98242 203.50868 205.79731 197.48047 199.42773 C 191.56579 192.94423 188.60938 184.35773 188.60938 173.66602 L 188.60938 115.31445 z M 674.08984 115.31445 L 708.89453 115.31445 L 723.73828 141.24805 L 739.77734 115.31445 L 773.04688 115.31445 L 743.87109 160.35742 L 775.09375 207.61719 L 740.11719 207.61719 L 723.73828 179.4668 L 705.48242 207.61719 L 672.04297 207.61719 L 703.43555 160.35742 L 674.08984 115.31445 z M 122.82617 168.37695 C 114.29542 168.37695 110.0293 171.56011 110.0293 177.92969 C 110.0293 181.11438 111.11032 183.6737 113.27148 185.60742 C 115.54638 187.42741 118.61714 188.33789 122.48438 188.33789 C 127.03416 188.33789 131.01559 187.25687 134.42773 185.0957 C 137.84007 182.82081 140.00211 179.92059 140.91211 176.39453 L 140.91211 168.37695 L 122.82617 168.37695 z M 394.07812 168.37695 C 385.54738 168.37695 381.28125 171.56011 381.28125 177.92969 C 381.28125 181.11438 382.36247 183.6737 384.52344 185.60742 C 386.79833 187.42741 389.86909 188.33789 393.73633 188.33789 C 398.28611 188.33789 402.26735 187.25687 405.67969 185.0957 C 409.09203 182.82081 411.25231 179.92059 412.16211 176.39453 L 412.16211 168.37695 L 394.07812 168.37695 z M 576.04688 179.4668 C 580.36921 179.4668 583.89716 180.83075 586.62695 183.56055 C 589.35675 186.29034 590.7207 189.81634 590.7207 194.13867 C 590.7207 198.46081 589.35675 202.04301 586.62695 204.88672 C 583.89716 207.61651 580.36921 208.98242 576.04688 208.98242 C 571.83846 208.98242 568.37061 207.61651 565.64062 204.88672 C 562.91083 202.04301 561.54492 198.46081 561.54492 194.13867 C 561.54492 189.81634 562.85268 186.29034 565.46875 183.56055 C 568.19874 180.83075 571.72474 179.4668 576.04688 179.4668 z "
     id="rect1294" />
  <g
     id="g32">
    <g
       transform="matrix(2.9462425,0,0,2.9462425,-6740.4764,7178.4091)"
       id="text1298"
       style="font-style:normal;font-weight:normal;font-size:57.90929794px;line-height:1.25;font-family:sans-serif;letter-spacing:0px;word-spacing:0px;fill:#f4b400;fill-opacity:1;stroke:none;stroke-width:1.44773245"
       aria-label="aulas" />
    <g
       transform="matrix(2.9462425,0,0,2.9462425,-6740.4764,7178.4091)"
       id="text1302"
       style="font-style:normal;font-weight:normal;font-size:57.90929794px;line-height:1.25;font-family:sans-serif;letter-spacing:0px;word-spacing:0px;fill:#0f9d58;fill-opacity:1;stroke:none;stroke-width:1.44773245"
       aria-label=".txt" />
  </g>
</svg>
