<?xml version="1.0" encoding="UTF-8" standalone="no"?>
<svg
   xmlns:dc="http://purl.org/dc/elements/1.1/"
   xmlns:cc="http://creativecommons.org/ns#"
   xmlns:rdf="http://www.w3.org/1999/02/22-rdf-syntax-ns#"
   xmlns:svg="http://www.w3.org/2000/svg"
   xmlns="http://www.w3.org/2000/svg"
   xmlns:sodipodi="http://sodipodi.sourceforge.net/DTD/sodipodi-0.dtd"
   xmlns:inkscape="http://www.inkscape.org/namespaces/inkscape"
   viewBox="0 0 868 300.00001"
   version="1.1"
   id="svg20"
   sodipodi:docname="logo-aulas-txt-github.svg"
   inkscape:version="0.92.4 (5da689c313, 2019-01-14)"
   width="868"
   height="300">
  <metadata
     id="metadata26">
    <rdf:RDF>
      <cc:Work
         rdf:about="">
        <dc:format>image/svg+xml</dc:format>
        <dc:type
           rdf:resource="http://purl.org/dc/dcmitype/StillImage" />
        <dc:title>Moodle-Logo-RGB</dc:title>
      </cc:Work>
    </rdf:RDF>
  </metadata>
  <defs
     id="defs24">
    <inkscape:path-effect
       tgtlength_rdm="0.3;1"
       tgtlength="15"
       tgtscale="10"
       tgt_places_rdmness="1;1"
       nbtangents="5"
       tremble_frequency="1"
       tremble_size="5;1"
       parallel_offset="5;1"
       ends_tolerance="0.1;1"
       strokeoverlap_rdm="0.3;1"
       strokeoverlap="0.3"
       strokelength_rdm="0.3;1"
       strokelength="100"
       nbiter_approxstrokes="3"
       is_visible="true"
       id="path-effect1767"
       effect="sketch" />
    <inkscape:path-effect
       effect="sketch"
       id="path-effect1650"
       is_visible="true"
       nbiter_approxstrokes="3"
       strokelength="100"
       strokelength_rdm="0.3;1"
       strokeoverlap="0.3"
       strokeoverlap_rdm="0.3;1"
       ends_tolerance="0.1;1"
       parallel_offset="5;1"
       tremble_size="5;1"
       tremble_frequency="1"
       nbtangents="5"
       tgt_places_rdmness="1;1"
       tgtscale="10"
       tgtlength="15"
       tgtlength_rdm="0.3;1" />
    <inkscape:path-effect
       effect="sketch"
       id="path-effect1526"
       is_visible="true"
       nbiter_approxstrokes="3"
       strokelength="20"
       strokelength_rdm="0.3;1"
       strokeoverlap="0.3"
       strokeoverlap_rdm="0.3;1"
       ends_tolerance="0.1;1"
       parallel_offset="2;1"
       tremble_size="1;1"
       tremble_frequency="1"
       nbtangents="3"
       tgt_places_rdmness="1;1"
       tgtscale="10"
       tgtlength="10"
       tgtlength_rdm="0.3;1" />
    <inkscape:path-effect
       effect="sketch"
       id="path-effect1514"
       is_visible="true"
       nbiter_approxstrokes="3"
       strokelength="20"
       strokelength_rdm="0.3;1"
       strokeoverlap="0.3"
       strokeoverlap_rdm="0.3;1"
       ends_tolerance="0.1;1"
       parallel_offset="2;1"
       tremble_size="1;1"
       tremble_frequency="1"
       nbtangents="3"
       tgt_places_rdmness="1;1"
       tgtscale="10"
       tgtlength="10"
       tgtlength_rdm="0.3;1" />
    <inkscape:path-effect
       effect="sketch"
       id="path-effect1490"
       is_visible="true"
       nbiter_approxstrokes="3"
       strokelength="25"
       strokelength_rdm="1;1"
       strokeoverlap="0.3"
       strokeoverlap_rdm="0.3;1"
       ends_tolerance="0.1;1"
       parallel_offset="1.5;1"
       tremble_size="1;1"
       tremble_frequency="0.25"
       nbtangents="3"
       tgt_places_rdmness="1;1"
       tgtscale="3"
       tgtlength="15"
       tgtlength_rdm="0.3;1" />
    <inkscape:path-effect
       effect="sketch"
       id="path-effect1476"
       is_visible="true"
       nbiter_approxstrokes="3"
       strokelength="15"
       strokelength_rdm="1;1"
       strokeoverlap="0.3"
       strokeoverlap_rdm="0.3;623035235"
       ends_tolerance="0.1;1"
       parallel_offset="1.5;1"
       tremble_size="1;1"
       tremble_frequency="0.25"
       nbtangents="3"
       tgt_places_rdmness="1;1"
       tgtscale="3"
       tgtlength="15"
       tgtlength_rdm="0.3;1" />
    <inkscape:path-effect
       effect="sketch"
       id="path-effect1767-5"
       is_visible="true"
       nbiter_approxstrokes="3"
       strokelength="100"
       strokelength_rdm="0.3;1"
       strokeoverlap="0.3"
       strokeoverlap_rdm="0.3;1"
       ends_tolerance="0.1;1"
       parallel_offset="5;1"
       tremble_size="5;1"
       tremble_frequency="1"
       nbtangents="5"
       tgt_places_rdmness="1;1"
       tgtscale="10"
       tgtlength="15"
       tgtlength_rdm="0.3;1" />
    <inkscape:path-effect
       tgtlength_rdm="0.3;1"
       tgtlength="15"
       tgtscale="10"
       tgt_places_rdmness="1;1"
       nbtangents="5"
       tremble_frequency="1"
       tremble_size="5;1"
       parallel_offset="5;1"
       ends_tolerance="0.1;1"
       strokeoverlap_rdm="0.3;1"
       strokeoverlap="0.3"
       strokelength_rdm="0.3;1"
       strokelength="100"
       nbiter_approxstrokes="3"
       is_visible="true"
       id="path-effect1650-3"
       effect="sketch" />
    <inkscape:path-effect
       tgtlength_rdm="0.3;1"
       tgtlength="10"
       tgtscale="10"
       tgt_places_rdmness="1;1"
       nbtangents="3"
       tremble_frequency="1"
       tremble_size="1;1"
       parallel_offset="2;1"
       ends_tolerance="0.1;1"
       strokeoverlap_rdm="0.3;1"
       strokeoverlap="0.3"
       strokelength_rdm="0.3;1"
       strokelength="20"
       nbiter_approxstrokes="3"
       is_visible="true"
       id="path-effect1526-5"
       effect="sketch" />
    <inkscape:path-effect
       tgtlength_rdm="0.3;1"
       tgtlength="10"
       tgtscale="10"
       tgt_places_rdmness="1;1"
       nbtangents="3"
       tremble_frequency="1"
       tremble_size="1;1"
       parallel_offset="2;1"
       ends_tolerance="0.1;1"
       strokeoverlap_rdm="0.3;1"
       strokeoverlap="0.3"
       strokelength_rdm="0.3;1"
       strokelength="20"
       nbiter_approxstrokes="3"
       is_visible="true"
       id="path-effect1514-6"
       effect="sketch" />
    <inkscape:path-effect
       tgtlength_rdm="0.3;1"
       tgtlength="15"
       tgtscale="3"
       tgt_places_rdmness="1;1"
       nbtangents="3"
       tremble_frequency="0.25"
       tremble_size="1;1"
       parallel_offset="1.5;1"
       ends_tolerance="0.1;1"
       strokeoverlap_rdm="0.3;1"
       strokeoverlap="0.3"
       strokelength_rdm="1;1"
       strokelength="25"
       nbiter_approxstrokes="3"
       is_visible="true"
       id="path-effect1490-2"
       effect="sketch" />
    <inkscape:path-effect
       tgtlength_rdm="0.3;1"
       tgtlength="15"
       tgtscale="3"
       tgt_places_rdmness="1;1"
       nbtangents="3"
       tremble_frequency="0.25"
       tremble_size="1;1"
       parallel_offset="1.5;1"
       ends_tolerance="0.1;1"
       strokeoverlap_rdm="0.3;623035235"
       strokeoverlap="0.3"
       strokelength_rdm="1;1"
       strokelength="15"
       nbiter_approxstrokes="3"
       is_visible="true"
       id="path-effect1476-9"
       effect="sketch" />
  </defs>
  <sodipodi:namedview
     pagecolor="#ffffff"
     bordercolor="#666666"
     borderopacity="1"
     objecttolerance="10"
     gridtolerance="10"
     guidetolerance="10"
     inkscape:pageopacity="0"
     inkscape:pageshadow="2"
     inkscape:window-width="1024"
     inkscape:window-height="739"
     id="namedview22"
     showgrid="false"
     inkscape:zoom="0.38834321"
     inkscape:cx="329.34839"
     inkscape:cy="-2.4306579"
     inkscape:window-x="0"
     inkscape:window-y="0"
     inkscape:window-maximized="1"
     inkscape:current-layer="svg20" />
  <title
     id="title2">Moodle-Logo-RGB</title>
  <path
     inkscape:connector-curvature="0"
     d="M 501.47028,71.90349 Q 481.17483,61.272371 468.2246,61.272371 q -4.44586,0 -7.1518,1.739661 -2.70593,1.54625 -2.70593,4.832162 0,3.479322 4.25218,5.605546 4.25245,2.126224 13.53021,4.63901 11.21084,3.285912 18.55578,6.571823 7.53836,3.092501 12.9505,9.664324 5.41187,6.378413 5.41187,16.816123 0,15.84984 -12.37026,24.93419 -12.17737,8.89146 -31.89284,8.89146 -13.33679,0 -25.51416,-3.67248 -12.17711,-3.86588 -21.64828,-11.21083 l 10.82427,-22.22826 q 8.89119,6.18526 18.55552,9.66459 9.85773,3.28591 18.55578,3.28591 5.02557,0 7.92492,-1.54651 3.0925,-1.7394 3.0925,-4.83216 0,-3.86563 -4.4456,-5.99185 -4.25219,-2.12623 -13.53021,-4.63901 -11.01742,-3.28591 -18.16922,-6.378673 -7.15153,-3.285911 -12.56367,-9.664323 -5.21872,-6.378412 -5.21872,-16.622969 0,-15.849584 11.98396,-24.740782 11.9837,-9.084609 30.92604,-9.084609 11.40424,0 22.42167,3.092501 11.21057,3.092759 21.0683,9.084608 z M 362.58009,37.497866 q 21.64828,0 33.63224,10.051145 11.98396,9.857734 12.17711,27.833542 v 68.037867 h -33.82565 v -11.79081 q -10.43745,13.33706 -31.50601,13.33706 -16.62297,0 -26.2873,-8.89146 -9.47117,-9.08435 -9.47117,-23.77451 0,-14.883303 10.2443,-23.194528 10.43771,-8.311484 29.76661,-8.504895 h 27.25357 V 79.44159 q 0,-7.5381 -5.21872,-11.597396 -5.02558,-4.059037 -14.6899,-4.059037 -6.57182,0 -14.88331,2.126224 -8.11807,2.126224 -16.42955,6.185261 l -9.47117,-23.194533 q 12.75708,-5.798697 24.35447,-8.504894 11.79055,-2.899349 24.35448,-2.899349 z m -8.89145,84.080854 q 7.73151,0 13.5302,-3.67247 5.7987,-3.86589 7.34495,-9.85773 V 98.963907 H 354.0752 q -14.49675,0 -14.49675,10.824013 0,5.41213 3.67274,8.69804 3.86562,3.09276 10.43745,3.09276 z M 253.71588,-4.5184326e-7 H 288.1215 V 143.42042 H 253.71588 Z M 226.45011,38.850964 V 143.42042 h -34.40537 v -17.00953 q -10.63086,18.16921 -33.43909,18.55578 -17.00927,0 -27.25357,-10.82427 -10.05114,-11.01743 -10.05114,-29.18664 V 38.850964 h 34.40536 v 56.247058 q 0,8.891198 4.44586,13.916768 4.63875,5.02557 12.37026,5.02557 9.08461,-0.19211 14.3036,-6.57182 5.21872,-6.57182 5.21872,-17.009528 V 38.850964 Z M 55.28078,37.497866 q 21.64828,0 33.63224,10.051145 11.98396,9.857734 12.17711,27.833542 V 143.42042 H 67.26448 v -11.79081 q -10.43745,13.33706 -31.50602,13.33706 -16.62271,0 -26.28729,-8.89146 Q 0,126.99086 0,112.3007 0,97.417397 10.2443,89.106172 20.682,80.794688 40.01091,80.601277 H 67.26448 V 79.44159 q 0,-7.5381 -5.21872,-11.597396 -5.02558,-4.059037 -14.6899,-4.059037 -6.57182,0 -14.88331,2.126224 -8.11807,2.126224 -16.42956,6.185261 L 6.57182,48.902109 Q 19.32891,43.103412 30.9263,40.397215 42.71685,37.497866 55.28078,37.497866 Z m -8.89146,84.080854 q 7.73151,0 13.53021,-3.67247 5.7987,-3.86589 7.34495,-9.85773 V 98.963907 H 46.77589 q -14.49649,0 -14.49649,10.824013 0,5.41213 3.67247,8.69804 3.86563,3.09276 10.43745,3.09276 z"
     style="font-style:normal;font-variant:normal;font-weight:bold;font-stretch:normal;font-size:74.45297241px;line-height:1.25;font-family:Montserrat;-inkscape-font-specification:'Montserrat Bold';letter-spacing:0px;word-spacing:0px;fill:#f4b400;fill-opacity:1;stroke:none;stroke-width:4.83222485"
     id="path1733" />
  <path
     id="text942"
     style="font-style:normal;font-weight:normal;font-size:74.45297241px;line-height:1.25;font-family:sans-serif;letter-spacing:0px;word-spacing:0px;fill:#0f9d58;fill-opacity:1;stroke:none;stroke-width:4.83222485"
     d="m 601.81506,14.88188 v 28.993488 h -14.49674 v 22.807451 h 14.49674 v 44.843851 c 0,10.43771 3.15766,18.61913 9.47195,24.54659 6.4428,5.92747 14.81581,8.8938 25.12449,8.8938 5.15434,0 10.24689,-0.57946 15.27247,-1.73941 5.02557,-1.28845 9.46987,-3.02681 13.3355,-5.21742 l -6.57131,-24.35396 c -5.15434,2.31937 -9.59864,3.47854 -13.33576,3.47854 -6.05623,0 -9.08642,-3.67351 -9.08642,-11.01846 V 66.682819 h 27.06171 V 43.875368 H 636.02598 V 14.88188 Z m 202.72566,0 v 28.993488 h -14.4967 v 22.807451 h 14.4967 v 44.843851 c 0,10.43771 3.1577,18.61913 9.4717,24.54659 6.4431,5.92747 14.8158,8.8938 25.1248,8.8938 5.1543,0 10.2469,-0.57946 15.2725,-1.73941 5.0255,-1.28845 9.4696,-3.02681 13.3355,-5.21742 l -6.5714,-24.35396 c -5.1546,2.31937 -9.5986,3.47854 -13.3357,3.47854 -6.0562,0 -9.0864,-3.67351 -9.0864,-11.01846 V 66.682819 h 27.0617 V 43.875368 h -27.0617 V 14.88188 Z m -133.2389,23.968695 33.2426,51.029891 -35.56483,53.540084 h 37.88733 l 20.6827,-31.89388 18.553,31.89388 h 39.6264 l -35.3722,-53.540084 33.05,-51.029891 h -37.6895 l -18.1677,29.378754 -16.8192,-29.378754 z m -111.0704,72.676095 c -4.89655,0 -8.89406,1.54703 -11.98682,4.63953 -2.96373,3.09276 -4.44663,7.09027 -4.44663,11.98681 0,4.89655 1.54677,8.95299 4.63953,12.17452 3.0925,3.0925 7.02614,4.63953 11.79392,4.63953 4.8968,0 8.88912,-1.54703 11.98188,-4.63953 3.0925,-3.22153 4.63953,-7.27797 4.63953,-12.17452 0,-4.89654 -1.54703,-8.89405 -4.63953,-11.98681 -3.09276,-3.0925 -7.08508,-4.63953 -11.98188,-4.63953 z"
     inkscape:connector-curvature="0" />
  <g
     aria-label="repositório de recursos"
     style="font-style:normal;font-weight:normal;font-size:74.84748077px;line-height:1.25;font-family:sans-serif;letter-spacing:0px;word-spacing:0px;fill:#ffffff;fill-opacity:1;stroke:none;stroke-width:1.87118709"
     id="text1709">
    <path
       id="path127"
       style="font-style:normal;font-variant:normal;font-weight:normal;font-stretch:normal;font-family:Montserrat;-inkscape-font-specification:Montserrat;fill:#ffffff;fill-opacity:1;stroke-width:1.87118709"
       d="m 863.80225,236.22549 q -2.46997,-1.49695 -5.46387,-2.39512 -2.91905,-0.89817 -5.61356,-0.89817 -3.14359,0 -5.08963,1.19756 -1.87118,1.12271 -1.87118,3.51783 0,2.39512 2.09573,3.66753 2.17057,1.19756 6.51173,2.46997 4.11661,1.19756 6.73627,2.39512 2.61966,1.19756 4.416,3.51783 1.87119,2.32027 1.87119,6.13749 0,5.61356 -4.26631,8.53261 -4.19146,2.91906 -10.47865,2.91906 -4.416,0 -8.60746,-1.42211 -4.11661,-1.4221 -6.96081,-4.04176 l 2.61966,-5.08963 q 2.46997,2.24542 6.06265,3.59268 3.66752,1.34725 7.11051,1.34725 3.44298,0 5.53871,-1.2724 2.09573,-1.27241 2.09573,-3.89207 0,-2.69451 -2.24542,-4.04177 -2.17058,-1.34725 -6.66143,-2.69451 -3.96692,-1.12271 -6.51173,-2.24542 -2.46997,-1.19756 -4.26631,-3.44298 -1.72149,-2.24543 -1.72149,-5.83811 0,-5.53871 4.04176,-8.30807 4.04177,-2.76935 10.10441,-2.76935 3.59268,0 7.03567,1.04786 3.51783,0.97302 6.06264,2.69451 z m -51.65178,-8.9817 q 5.91295,0 10.47865,2.54482 4.64054,2.54481 7.18535,7.11051 2.61967,4.49085 2.61967,10.32895 0,5.8381 -2.61967,10.4038 -2.54481,4.5657 -7.18535,7.11051 -4.5657,2.54482 -10.47865,2.54482 -5.9878,0 -10.62834,-2.54482 -4.5657,-2.54481 -7.18536,-7.03566 -2.54482,-4.5657 -2.54482,-10.47865 0,-5.8381 2.54482,-10.32895 2.61966,-4.5657 7.18536,-7.11051 4.64054,-2.54482 10.62834,-2.54482 z m 0,6.06265 q -3.89207,0 -6.96082,1.79634 -2.9939,1.79634 -4.71539,5.01478 -1.64664,3.14359 -1.64664,7.18536 0,4.11661 1.64664,7.33505 1.72149,3.21844 4.71539,5.01478 3.06875,1.72149 6.96082,1.72149 3.81722,0 6.81112,-1.72149 3.06875,-1.79634 4.71539,-5.01478 1.72149,-3.21844 1.72149,-7.33505 0,-4.04177 -1.72149,-7.18536 -1.64664,-3.21844 -4.71539,-5.01478 -2.9939,-1.79634 -6.81112,-1.79634 z m -29.33553,2.91905 q -2.46996,-1.49695 -5.46386,-2.39512 -2.91905,-0.89817 -5.61356,-0.89817 -3.1436,0 -5.08963,1.19756 -1.87119,1.12271 -1.87119,3.51783 0,2.39512 2.09573,3.66753 2.17058,1.19756 6.51173,2.46997 4.11661,1.19756 6.73628,2.39512 2.61966,1.19756 4.416,3.51783 1.87118,2.32027 1.87118,6.13749 0,5.61356 -4.2663,8.53261 -4.19146,2.91906 -10.47865,2.91906 -4.416,0 -8.60746,-1.42211 -4.11661,-1.4221 -6.96082,-4.04176 l 2.61967,-5.08963 q 2.46996,2.24542 6.06264,3.59268 3.66753,1.34725 7.11051,1.34725 3.44299,0 5.53872,-1.2724 2.09573,-1.27241 2.09573,-3.89207 0,-2.69451 -2.24543,-4.04177 -2.17058,-1.34725 -6.66142,-2.69451 -3.96692,-1.12271 -6.51174,-2.24542 -2.46996,-1.19756 -4.2663,-3.44298 -1.72149,-2.24543 -1.72149,-5.83811 0,-5.53871 4.04176,-8.30807 4.04176,-2.76935 10.10441,-2.76935 3.59268,0 7.03566,1.04786 3.51783,0.97302 6.06265,2.69451 z m -43.32269,-0.22454 q 1.94603,-4.26631 5.53871,-6.43689 3.59268,-2.24542 8.53262,-2.32027 v 6.73628 q -6.06265,-0.22455 -9.80502,3.14359 -3.74238,3.36814 -4.26631,9.05655 v 20.88244 h -6.96082 v -39.59431 h 6.96082 z m -20.46607,-8.53261 v 39.59431 h -7.03566 v -8.38292 q -3.89207,8.45777 -14.67011,8.60747 -6.88597,0 -10.77804,-4.04177 -3.89206,-4.11661 -3.89206,-11.30197 v -24.47512 h 7.03566 v 22.60393 q 0,5.01479 2.69451,7.85899 2.76935,2.76936 7.55959,2.76936 5.53872,-0.0749 8.75716,-3.89207 3.29329,-3.89207 3.29329,-9.87987 v -19.46034 z m -49.36195,10.55349 q -4.71539,-4.5657 -11.30197,-4.5657 -3.89207,0 -6.96082,1.7215 -2.99389,1.72149 -4.71539,4.86508 -1.72149,3.1436 -1.72149,7.26021 0,4.11661 1.64665,7.2602 1.72149,3.1436 4.64054,4.93994 2.9939,1.72149 6.81112,1.72149 3.81722,0 6.88597,-1.27241 3.06875,-1.27241 5.08963,-3.66752 l 3.96691,4.04176 q -2.69451,3.36814 -6.88596,5.16448 -4.11662,1.79634 -9.35594,1.79634 -5.76326,0 -10.2541,-2.54482 -4.49085,-2.54481 -7.03567,-7.03566 -2.46996,-4.5657 -2.46996,-10.4038 0,-5.83811 2.46996,-10.4038 2.54482,-4.5657 7.03567,-7.11051 4.49084,-2.54482 10.2541,-2.54482 5.01478,0 8.9817,1.5718 4.04176,1.49695 6.73627,4.416 z m -55.90289,-10.77804 q 9.20624,0 13.92164,5.46387 4.71539,5.38902 4.71539,15.04434 0,1.49695 -0.0748,2.24543 h -31.28625 q 0.82332,5.31417 4.416,8.45776 3.66753,3.1436 8.9817,3.1436 3.51783,0 6.51173,-1.27241 3.06875,-1.27241 5.31417,-3.59268 l 3.81723,3.96692 q -2.91906,3.14359 -7.03567,4.86508 -4.11661,1.7215 -9.13139,1.7215 -5.8381,0 -10.4038,-2.46997 -4.49085,-2.54482 -7.03566,-7.11051 -2.46997,-4.5657 -2.46997,-10.4038 0,-5.83811 2.46997,-10.32895 2.54481,-4.5657 7.03566,-7.11052 4.49085,-2.61966 10.2541,-2.61966 z m 12.34984,17.36462 q -0.29939,-5.38902 -3.59268,-8.45777 -3.29329,-3.14359 -8.68231,-3.14359 -5.23932,0 -8.75715,3.14359 -3.44299,3.1436 -4.11661,8.45777 z m -49.90921,-8.60746 q 1.94603,-4.26631 5.53871,-6.43689 3.59268,-2.24542 8.53261,-2.32027 v 6.73628 q -6.06264,-0.22455 -9.80502,3.14359 -3.74237,3.36814 -4.2663,9.05655 v 20.88244 h -6.96082 v -39.59431 h 6.96082 z m -54.68428,-8.75716 q 9.20624,0 13.92163,5.46387 4.71539,5.38902 4.71539,15.04434 0,1.49695 -0.0748,2.24543 h -31.28625 q 0.82332,5.31417 4.416,8.45776 3.66753,3.1436 8.9817,3.1436 3.51783,0 6.51173,-1.27241 3.06875,-1.27241 5.31417,-3.59268 l 3.81722,3.96692 q -2.91905,3.14359 -7.03566,4.86508 -4.11661,1.7215 -9.13139,1.7215 -5.83811,0 -10.4038,-2.46997 -4.49085,-2.54482 -7.03567,-7.11051 -2.46996,-4.5657 -2.46996,-10.4038 0,-5.83811 2.46996,-10.32895 2.54482,-4.5657 7.03567,-7.11052 4.49085,-2.61966 10.2541,-2.61966 z m 12.34984,17.36462 q -0.29939,-5.38902 -3.59268,-8.45777 -3.29329,-3.14359 -8.68231,-3.14359 -5.23932,0 -8.75716,3.14359 -3.44298,3.1436 -4.11661,8.45777 z m -42.19059,-33.08259 v 55.53683 h -6.96082 v -7.85898 q -2.24542,3.96691 -6.06264,6.13749 -3.74238,2.09573 -8.75716,2.09573 -5.61356,0 -9.95471,-2.54481 -4.26631,-2.61967 -6.66143,-7.18536 -2.39512,-4.64055 -2.39512,-10.5535 0,-5.8381 2.39512,-10.32895 2.39512,-4.5657 6.66143,-7.11051 4.34115,-2.54481 9.87987,-2.54481 5.08962,0 8.90685,2.09572 3.81722,2.09573 5.98779,6.06265 v -23.8015 z m -20.35851,49.92327 q 3.89206,0 6.88596,-1.79634 3.06875,-1.79634 4.79024,-5.01478 1.72149,-3.21844 1.72149,-7.2602 0,-4.11662 -1.72149,-7.33506 -1.72149,-3.21844 -4.79024,-5.01478 -2.9939,-1.79634 -6.88596,-1.79634 -3.89207,0 -6.96082,1.87119 -2.9939,1.79634 -4.71539,5.01478 -1.72149,3.21844 -1.72149,7.26021 0,4.04176 1.72149,7.2602 1.72149,3.21844 4.71539,5.01478 3.06875,1.79634 6.96082,1.79634 z m -66.15115,-34.2053 q 5.91295,0 10.47865,2.54482 4.64054,2.54481 7.18536,7.11051 2.61966,4.49085 2.61966,10.32895 0,5.8381 -2.61966,10.4038 -2.54482,4.5657 -7.18536,7.11051 -4.5657,2.54482 -10.47865,2.54482 -5.98779,0 -10.62834,-2.54482 -4.56569,-2.54481 -7.18536,-7.03566 -2.54481,-4.5657 -2.54481,-10.47865 0,-5.8381 2.54481,-10.32895 2.61967,-4.5657 7.18536,-7.11051 4.64055,-2.54482 10.62834,-2.54482 z m 0,6.06265 q -3.89207,0 -6.96081,1.79634 -2.9939,1.79634 -4.71539,5.01478 -1.64665,3.14359 -1.64665,7.18536 0,4.11661 1.64665,7.33505 1.72149,3.21844 4.71539,5.01478 3.06874,1.72149 6.96081,1.72149 3.81723,0 6.81112,-1.72149 3.06875,-1.79634 4.7154,-5.01478 1.72149,-3.21844 1.72149,-7.33505 0,-4.04177 -1.72149,-7.18536 -1.64665,-3.21844 -4.7154,-5.01478 -2.99389,-1.79634 -6.81112,-1.79634 z m -36.93257,-5.8381 h 6.96082 v 39.59431 h -6.96082 z m 3.44299,-15.79282 q 1.87118,0 3.06874,1.2724 1.27241,1.27241 1.27241,3.21845 0,1.94603 -1.27241,3.21844 -1.19756,1.2724 -3.06874,1.2724 -1.87119,0 -3.1436,-1.2724 -1.19756,-1.27241 -1.19756,-3.21844 0,-1.94604 1.19756,-3.21845 1.27241,-1.2724 3.1436,-1.2724 z m -25.1347,24.32543 q 1.94604,-4.26631 5.53871,-6.43689 3.59268,-2.24542 8.53262,-2.32027 v 6.73628 q -6.06265,-0.22455 -9.80502,3.14359 -3.74238,3.36814 -4.26631,9.05655 v 20.88244 h -6.96081 v -39.59431 h 6.96081 z m -36.98167,-8.75716 q 5.91295,0 10.47864,2.54482 4.64055,2.54481 7.18536,7.11051 2.61966,4.49085 2.61966,10.32895 0,5.8381 -2.61966,10.4038 -2.54481,4.5657 -7.18536,7.11051 -4.56569,2.54482 -10.47864,2.54482 -5.9878,0 -10.62835,-2.54482 -4.56569,-2.54481 -7.18535,-7.03566 -2.54482,-4.5657 -2.54482,-10.47865 0,-5.8381 2.54482,-10.32895 2.61966,-4.5657 7.18535,-7.11051 4.64055,-2.54482 10.62835,-2.54482 z m 0,6.06265 q -3.89207,0 -6.96082,1.79634 -2.9939,1.79634 -4.71539,5.01478 -1.64664,3.14359 -1.64664,7.18536 0,4.11661 1.64664,7.33505 1.72149,3.21844 4.71539,5.01478 3.06875,1.72149 6.96082,1.72149 3.81722,0 6.81112,-1.72149 3.06874,-1.79634 4.71539,-5.01478 1.72149,-3.21844 1.72149,-7.33505 0,-4.04177 -1.72149,-7.18536 -1.64665,-3.21844 -4.71539,-5.01478 -2.9939,-1.79634 -6.81112,-1.79634 z m 4.11661,-22.52909 7.18536,3.14359 -9.28109,7.33505 -5.91295,-0.74847 z m -28.4175,53.66564 q -4.5657,2.91905 -9.28109,2.91905 -4.71539,0 -7.63444,-2.76935 -2.91905,-2.84421 -2.91905,-8.53262 v -21.93031 h -5.61356 v -5.31417 h 5.61356 v -10.62834 h 7.03566 v 10.62834 h 12.12529 v 5.31417 h -12.12529 v 20.65791 q 0,3.29328 1.19756,4.71539 1.19756,1.4221 3.59268,1.4221 2.8442,0 6.13749,-1.87119 z m -41.72278,-36.97465 h 6.96082 v 39.59431 h -6.96082 z m 3.44298,-15.79282 q 1.87119,0 3.06875,1.2724 1.27241,1.27241 1.27241,3.21845 0,1.94603 -1.27241,3.21844 -1.19756,1.2724 -3.06875,1.2724 -1.87118,0 -3.14359,-1.2724 -1.19756,-1.27241 -1.19756,-3.21844 0,-1.94604 1.19756,-3.21845 1.27241,-1.2724 3.14359,-1.2724 z m -16.31207,24.54997 q -2.46997,-1.49695 -5.46387,-2.39512 -2.91905,-0.89817 -5.61356,-0.89817 -3.14359,0 -5.08963,1.19756 -1.87119,1.12271 -1.87119,3.51783 0,2.39512 2.09573,3.66753 2.17058,1.19756 6.51173,2.46997 4.11662,1.19756 6.73628,2.39512 2.61966,1.19756 4.416,3.51783 1.87119,2.32027 1.87119,6.13749 0,5.61356 -4.26631,8.53261 -4.19146,2.91906 -10.47865,2.91906 -4.416,0 -8.60746,-1.42211 -4.11661,-1.4221 -6.96081,-4.04176 l 2.61966,-5.08963 q 2.46997,2.24542 6.06264,3.59268 3.66753,1.34725 7.11051,1.34725 3.44299,0 5.53872,-1.2724 2.09573,-1.27241 2.09573,-3.89207 0,-2.69451 -2.24543,-4.04177 -2.17057,-1.34725 -6.66142,-2.69451 -3.96692,-1.12271 -6.51173,-2.24542 -2.46997,-1.19756 -4.26631,-3.44298 -1.72149,-2.24543 -1.72149,-5.83811 0,-5.53871 4.04176,-8.30807 4.04177,-2.76935 10.10441,-2.76935 3.59268,0 7.03567,1.04786 3.51783,0.97302 6.06264,2.69451 z m -51.65178,-8.9817 q 5.91295,0 10.47864,2.54482 4.64055,2.54481 7.18536,7.11051 2.61966,4.49085 2.61966,10.32895 0,5.8381 -2.61966,10.4038 -2.54481,4.5657 -7.18536,7.11051 -4.56569,2.54482 -10.47864,2.54482 -5.9878,0 -10.62835,-2.54482 -4.56569,-2.54481 -7.18535,-7.03566 -2.54482,-4.5657 -2.54482,-10.47865 0,-5.8381 2.54482,-10.32895 2.61966,-4.5657 7.18535,-7.11051 4.64055,-2.54482 10.62835,-2.54482 z m 0,6.06265 q -3.89207,0 -6.96082,1.79634 -2.9939,1.79634 -4.71539,5.01478 -1.64665,3.14359 -1.64665,7.18536 0,4.11661 1.64665,7.33505 1.72149,3.21844 4.71539,5.01478 3.06875,1.72149 6.96082,1.72149 3.81722,0 6.81112,-1.72149 3.06874,-1.79634 4.71539,-5.01478 1.72149,-3.21844 1.72149,-7.33505 0,-4.04177 -1.72149,-7.18536 -1.64665,-3.21844 -4.71539,-5.01478 -2.9939,-1.79634 -6.81112,-1.79634 z m -45.188,-6.06265 q 5.53872,0 9.87987,2.54482 4.34115,2.54481 6.73627,7.11051 2.39512,4.56569 2.39512,10.47865 0,5.8381 -2.39512,10.40379 -2.32027,4.49085 -6.66142,7.03567 -4.26631,2.46997 -9.80502,2.46997 -5.01478,0 -8.83201,-2.09573 -3.81722,-2.09573 -5.98779,-5.9878 v 22.37939 h -6.96082 v -54.11472 h 6.96082 v 7.85898 q 2.17057,-3.89207 5.91295,-5.9878 3.81722,-2.09573 8.75715,-2.09573 z m -1.34725,33.98076 q 3.81722,0 6.81112,-1.79634 3.06875,-1.79634 4.71539,-5.01478 1.72149,-3.21844 1.72149,-7.26021 0,-3.96691 -1.72149,-7.18536 -1.72149,-3.21844 -4.71539,-5.01478 -2.9939,-1.79634 -6.81112,-1.79634 -3.81722,0 -6.88597,1.79634 -2.9939,1.79634 -4.71539,5.01478 -1.72149,3.21845 -1.72149,7.18536 0,4.11661 1.72149,7.33506 1.72149,3.14359 4.71539,4.93993 3.06875,1.79634 6.88597,1.79634 z M 83.689165,227.24379 q 9.20624,0 13.921631,5.46387 4.715394,5.38902 4.715394,15.04434 0,1.49695 -0.0748,2.24543 H 70.965093 q 0.823322,5.31417 4.416001,8.45776 3.667527,3.1436 8.981698,3.1436 3.517831,0 6.511731,-1.27241 3.068746,-1.27241 5.314171,-3.59268 l 3.817226,3.96692 q -2.919056,3.14359 -7.035668,4.86508 -4.116611,1.7215 -9.131392,1.7215 -5.838104,0 -10.4038,-2.46997 -4.490849,-2.54482 -7.035664,-7.11051 -2.469966,-4.5657 -2.469966,-10.4038 0,-5.83811 2.469966,-10.32895 2.544815,-4.5657 7.035664,-7.11052 4.490849,-2.61966 10.254105,-2.61966 z m 12.349834,17.36462 q -0.29939,-5.38902 -3.592679,-8.45777 -3.293289,-3.14359 -8.682308,-3.14359 -5.239324,0 -8.757155,3.14359 -3.442984,3.1436 -4.116612,8.45777 z m -49.909236,-8.60746 q 1.946034,-4.26631 5.538713,-6.43689 3.592679,-2.24542 8.532613,-2.32027 v 6.73628 q -6.062646,-0.22455 -9.80502,3.14359 -3.742374,3.36814 -4.266306,9.05655 v 20.88244 h -6.960816 v -39.59431 h 6.960816 z"
       inkscape:connector-curvature="0" />
  </g>
  <rect
     id="rect1763"
     height="8.4161711"
     width="393.3934"
     style="fill:#ffffff;stroke:none;stroke-width:2.85478997;stroke-miterlimit:4;stroke-dasharray:none;stroke-opacity:1"
     y="186.82816"
     x="270.35803"
     ry="4.2080855" />
  <rect
     ry="4.2080855"
     x="270.35803"
     y="291.58383"
     style="fill:#ffffff;stroke:none;stroke-width:2.85478997;stroke-miterlimit:4;stroke-dasharray:none;stroke-opacity:1"
     width="393.3934"
     height="8.4161711"
     id="rect1769" />
</svg>
